<svg version="1.1" xmlns="http://www.w3.org/2000/svg" viewBox="0 0 614.8178123188015 577.853214548081">
  <!-- svg-source:excalidraw -->
  <defs>
    <style>
      @font-face {
        font-family: "Virgil";
        src: url("https://excalidraw.com/FG_Virgil.woff2");
      }
      @font-face {
        font-family: "Cascadia";
        src: url("https://excalidraw.com/Cascadia.woff2");
      }
    </style>
  </defs>
  <g><g transform="translate(238.5755837897956 12.791513585671765) rotate(0 135.50061344482003 0.8253946477547203)"><path d="M2.4074127200990914 2.6194119032472374 C47.077614196985955 2.689147500942152, 221.77380301033455 -0.8836641815801414, 266.2172000082582 -0.8929326172918024 M0.7179066391289233 -0.9686226077377795 C46.051849745139464 -0.04004091384510089, 226.29334702365094 2.558735949272916, 270.2833202505111 2.157281174659735" stroke="#000000" stroke-width="4" fill="none"></path></g></g><g><g transform="translate(506.86548965066663 12.20544869340955) rotate(0 -0.9133462194354252 276.53612601198256)"><path d="M-2.462350684776902 -0.12990486584603778 C-2.5081487917651732 92.17350082832077, 0.6884836610406634 461.31394271887837, 0.6356582459062334 553.2021568898111 M-1.322340616732836 1.6160896892845633 C-1.572693023234606 93.79890356734394, -1.2674569745361801 460.7435227890312, -1.0211710448563096 553.0354624910652" stroke="#000000" stroke-width="4" fill="none"></path></g></g><g><g transform="translate(604.5721197347341 567.1065475269406) rotate(0 -297.1632135753333 -3.147571387477285)"><path d="M-0.613918363675475 0.746667021140456 C-98.64995339435833 -0.5450463842476476, -491.431943312908 -6.559393952352338, -589.5162224384395 -7.041809796094935 M0.24569258406758276 -2.8932744736969473 C-99.50632430280244 -3.865167890675373, -496.1985011327762 -1.7119168067351325, -594.5721197347341 -2.6601992312819176" stroke="#000000" stroke-width="4" fill="none"></path></g></g><g><g transform="translate(242.95142715066663 12.42419869340955) rotate(0 1.1621826756772293 45.408931344188744)"><path d="M0.8194563154131171 -2.424198693409562 C0.8508430683364469 13.294449585303665, -0.4706184224536021 77.35495265883704, -0.37169207297265516 93.14413303695619 M0.9368364353477956 0.2715706734359262 C1.8113106731077036 16.10619949862361, 2.995529707620541 77.97800613448024, 2.6314149256050587 93.24206138178707" stroke="#000000" stroke-width="1" fill="none"></path></g></g></svg>