<svg version="1.1" xmlns="http://www.w3.org/2000/svg" viewBox="0 0 614.8178123188015 577.853214548081">
  <!-- svg-source:excalidraw -->
  <defs>
    <style>
      @font-face {
        font-family: "Virgil";
        src: url("https://excalidraw.com/FG_Virgil.woff2");
      }
      @font-face {
        font-family: "Cascadia";
        src: url("https://excalidraw.com/Cascadia.woff2");
      }
    </style>
  </defs>
  <g><g transform="translate(238.5755837897956 12.791513585671765) rotate(0 135.50061344482003 0.8253946477547203)"><path d="M2.4074127200990914 2.6194119032472374 C47.077614196985955 2.689147500942152, 221.77380301033455 -0.8836641815801414, 266.2172000082582 -0.8929326172918024 M0.7179066391289233 -0.9686226077377795 C46.051849745139464 -0.04004091384510089, 226.29334702365094 2.558735949272916, 270.2833202505111 2.157281174659735" stroke="#000000" stroke-width="4" fill="none"></path></g></g><g><g transform="translate(506.86548965066663 12.20544869340955) rotate(0 -0.9133462194354252 276.53612601198256)"><path d="M-2.462350684776902 -0.12990486584603778 C-2.5081487917651732 92.17350082832077, 0.6884836610406634 461.31394271887837, 0.6356582459062334 553.2021568898111 M-1.322340616732836 1.6160896892845633 C-1.572693023234606 93.79890356734394, -1.2674569745361801 460.7435227890312, -1.0211710448563096 553.0354624910652" stroke="#000000" stroke-width="4" fill="none"></path></g></g><g><g transform="translate(604.5721197347341 567.1065475269406) rotate(0 -297.1632135753333 -3.147571387477285)"><path d="M-0.613918363675475 0.746667021140456 C-98.64995339435833 -0.5450463842476476, -491.431943312908 -6.559393952352338, -589.5162224384395 -7.041809796094935 M0.24569258406758276 -2.8932744736969473 C-99.50632430280244 -3.865167890675373, -496.1985011327762 -1.7119168067351325, -594.5721197347341 -2.6601992312819176" stroke="#000000" stroke-width="4" fill="none"></path></g></g><g><g transform="translate(242.95142715066663 12.42419869340955) rotate(0 1.1621826756772293 45.408931344188744)"><path d="M0.8194563154131171 -2.424198693409562 C0.8508430683364469 13.294449585303665, -0.4706184224536021 77.35495265883704, -0.37169207297265516 93.14413303695619 M0.9368364353477956 0.2715706734359262 C1.8113106731077036 16.10619949862361, 2.995529707620541 77.97800613448024, 2.6314149256050587 93.24206138178707" stroke="#000000" stroke-width="1" fill="none"></path></g></g><g transform="translate(152.14673965066663 103.42419869340955) rotate(0 90.8984375 107.677734375)"><path d="M37.560403668718465 18.075617849403976 C37.560403668718465 18.075617849403976, 37.560403668718465 18.075617849403976, 37.560403668718465 18.075617849403976 M37.560403668718465 18.075617849403976 C37.560403668718465 18.075617849403976, 37.560403668718465 18.075617849403976, 37.560403668718465 18.075617849403976 M14.272111888325988 47.04655616580881 C17.904437282939448 41.02157145511314, 24.179636110565397 34.5132588990884, 44.114305241015025 10.697278711233603 M14.966723458192526 48.641645193466914 C27.293004186550704 36.85840104784441, 35.74177344744216 23.83251818675621, 46.301298800837465 15.063404900241958 M13.288469796533356 57.11986941657881 C25.706138878844698 48.40293811902876, 34.962755463281745 35.67836641287144, 54.40477922940113 8.786134611987851 M12.45680424151815 59.791863277553716 C22.97757713184137 43.01320923081591, 40.17851492086339 28.39285655641278, 53.859767133458035 12.507251342931173 M4.932196395596456 73.52716098385456 C23.378380046627385 52.11529225590521, 34.38635037676196 38.06336505453716, 60.05736311958047 5.901961993310344 M9.161631263917279 72.57768969828787 C17.82692072501967 57.410165548292476, 33.506546987331994 40.68541747356302, 63.04002516218337 9.981420477736485 M2.7360754299622982 78.65265704942132 C30.735077239316247 50.65877968187672, 54.301039350412964 26.372146398170216, 67.35093440600005 7.120393286986349 M2.3785756721806735 81.78184917261089 C22.27625278040754 62.70177984453535, 40.686168780747366 42.95064958748195, 71.17264715880421 5.01668389659941 M-0.5526475479411275 89.40632088461882 C15.926190536870596 70.43469271324057, 32.571106495381976 54.56155549107176, 71.21747821714482 9.196055495692235 M1.9222047960800737 89.00381913201875 C24.861938749922686 60.85788465973811, 52.68116059654419 33.57851532947177, 74.48154940414926 5.176323387352568 M-1.9412061487142793 100.0941432701185 C34.14792091306674 60.78403236008024, 65.03685280025631 29.605621181839354, 83.45797275039533 8.866926489653864 M0.5928411773587712 97.09262014233913 C29.005166629971107 61.78909201718399, 56.50985127793809 29.973242617779874, 81.73737562294284 5.9229872303780695 M-2.345080522862702 103.85436703881945 C22.455654041596603 77.36594756277826, 50.901312781174255 48.96478540070612, 87.3083267501986 8.0641074506565 M1.4602951928549714 101.1455404466274 C27.04609923343208 70.22158990102643, 56.58060036493288 36.923744413059964, 84.2609344619757 3.3909626426174313 M3.596065161032115 110.69771463183864 C30.182883493454355 77.31601973538173, 59.28198715836161 45.33688360520323, 93.06285173999208 3.49914623026266 M-0.5145724236690654 110.11086352115674 C23.288630097163423 82.88391311120711, 48.576547687550786 55.831455519387134, 92.98417172202903 5.535999135789417 M-1.3232666025828337 111.43419348096135 C25.939307865854776 87.53569830102953, 46.763045334743005 62.052627079107374, 95.13714396422279 3.7984565102576084 M2.1160000995774055 112.27717345786873 C27.727252328808625 81.91022640286232, 52.30939655728591 51.20840729063481, 94.95055229989362 4.832227676835544 M-0.5312295692605531 123.03396726797286 C38.50392022711397 83.8933513096659, 70.86680369627061 46.980347077193514, 101.06732050430924 6.109479481758299 M1.0673526593851292 120.19672622370484 C39.149489311258314 77.56255169836348, 73.45918024078756 36.68102019765071, 103.75179630433172 4.440822367029014 M4.664543342417474 125.98822718399008 C32.696710639193654 95.32712469365151, 58.803736249627256 68.8508960088101, 110.60472413368895 -0.5007682536727671 M2.103080364516373 125.60882091993828 C29.369032825419545 96.07242087368692, 56.275355989506856 66.59417173782477, 110.06008391112461 1.1710483430885787 M5.515585876898228 132.46244941079834 C25.446197238225373 106.54363255523526, 41.51536846875674 79.24857571331991, 116.12274623084684 2.843434056640767 M2.9111793617618673 131.15555726351062 C30.41964150910613 99.90813772911142, 57.383896305359336 69.54358819565968, 111.47237827610095 4.9318905178468455 M0.14395261560022732 137.39313763951458 C41.73386510590212 90.48851631246995, 91.3422875867695 42.31663804287582, 118.17665318518249 5.885577193370324 M4.85290100988388 135.04107810569502 C40.167769520326225 94.36707895647919, 75.42553112070807 49.073310908402604, 115.50775194100407 7.353619457131487 M3.3248057739799606 139.39579013214683 C49.78454220630911 90.0484508857994, 84.3976047821924 48.22556813901329, 119.34981902013334 6.673146508078389 M6.18283867668265 139.5020364936558 C32.967759390383065 109.826353562628, 62.54786993785594 75.45989460712423, 118.89111945661517 8.786515922661238 M4.14171034648443 148.61635182048036 C48.22255378682669 102.6884889481783, 87.75821693029968 60.11699165615131, 125.25296150913695 8.163783602327477 M5.14172288394893 144.22154776933445 C31.19831195740486 113.47536718402012, 56.944579760802995 85.16422599416431, 123.98997349871556 10.469532551154863 M5.6737521645321465 152.84679514563211 C53.07187250237437 93.70090837184514, 92.91101493317366 42.37254759050293, 130.8991421756308 13.850286327680067 M7.08103936544498 148.00727040900418 C40.738198040003226 117.82589791362635, 68.91689082256109 81.49424591746447, 126.62688486808645 11.717793854331092 M7.434183722570083 149.6783775393874 C53.92636063915743 112.98724847547302, 90.46860838485385 64.87357646103696, 127.07876629305235 11.385608785698693 M8.339174892961523 154.50716350460655 C36.181852511439146 120.64388078857417, 66.14364315953682 89.5718829789463, 129.89200249050907 13.110096218908708 M13.713601265045241 159.86251268353146 C44.893382225001446 113.8183032479663, 86.35994897125033 70.10153945126658, 134.73458288483917 16.207861327945814 M12.022094363289312 157.13285802308303 C48.471371142099805 110.04286851513368, 85.74812174053076 66.61081692914966, 135.95555341676473 17.67640790660642 M13.92312187337616 164.6716417691813 C57.571368890761946 114.66586434313763, 102.25923880815223 68.62302411849176, 139.99274375341923 14.410600975761191 M13.784017885190636 161.9830280657069 C48.538200163765865 123.71280728184979, 86.3484764631056 78.59937878079263, 140.53640185162516 17.330659473920242 M17.033029292009815 166.05249097812214 C67.07017482261638 111.56126801986844, 116.11803423283617 53.55148667791582, 141.25750833525848 18.14137932137563 M15.703566605456217 167.55914834941962 C47.11635609957593 130.22965319855348, 77.96347495730177 93.27866854712471, 141.43425400890004 21.831791673237227 M15.915951015393176 171.98694274213926 C63.58118034376264 118.23373516667775, 108.94755598000937 59.39626555926449, 144.83471593278497 27.189065886128844 M16.06443979587678 171.68886546616272 C58.79601928977271 123.51399666923587, 101.43823021859433 73.42861440293139, 145.5906303433612 23.933578811053337 M20.346094403935297 177.09819742212687 C50.36642265702781 133.4575342449572, 89.54393241972681 91.2548388323953, 149.33860862741722 26.872976861137815 M17.792150969205125 175.69465956198667 C48.651144750026134 140.79726742703912, 76.99091878866906 105.55818030671549, 146.93318846377088 26.836257488641806 M22.125774452083164 180.31344994987023 C63.66894987079381 126.51611232066779, 107.65442772584609 83.02781641533065, 149.4425951636022 30.6867134281878 M23.01805564723199 175.61902097883296 C60.84532874961266 137.16543794473364, 97.17315599327836 93.68157187919257, 149.5639870169198 30.392864922944142 M20.084649904283765 181.47005150715455 C60.66860837893196 144.84940302172075, 90.72547475871964 108.1843464121844, 156.2224280357869 33.65903301906406 M25.516087476748112 178.39311193364307 C69.23959049416796 123.72344097303517, 119.68121603478235 67.30756997753367, 153.54016277459874 30.032610205901854 M23.110782283974586 184.18579994554244 C66.90827640845723 138.2540702462323, 102.59756444024966 91.36093881474278, 157.49938057538984 33.71472057488358 M27.171317258534728 182.26955693813585 C70.83763819175752 133.30802398609222, 110.5762847138758 88.3891289501283, 154.65460772056994 33.684245563788174 M31.869576864593157 188.23864936659632 C84.73013741714985 129.48032223030435, 126.68694531239186 72.03981603027732, 156.27889277685802 39.8278460274316 M31.136393918373116 184.76465237902997 C56.861832859139014 152.93514630408686, 86.44636418949372 117.90533167628215, 160.31211487662415 35.4918238385446 M33.17878266957696 185.1917101218787 C81.75671925069665 140.94388396599604, 120.7116588300033 91.26505001070986, 163.74980741362893 36.627925978270646 M33.64404450704451 187.8458665180442 C81.78764620757592 130.2514863479056, 128.1413541748409 76.21355322943114, 161.96611441854262 39.9833601668899 M37.727433443373 190.77295839317492 C82.27510457217218 139.8094568386405, 130.09245860697362 83.18838023408289, 160.34725198014957 45.53434285918598 M37.16351517133967 189.8740490721201 C86.98654171312918 133.36737157108786, 138.1359382714379 77.44427588772434, 165.61905561811608 44.7677511407656 M37.07508376739976 197.48139787160184 C76.47046541439835 154.63193198304492, 109.96953772531668 108.64336032098328, 168.75187480783842 49.36250661129455 M36.837307270020816 195.77209289253082 C74.7040615808943 154.79019252995423, 108.73012756537454 114.72849274064608, 168.25914295910678 44.70343648644487 M38.09045488610427 194.74031723894478 C82.15963304497078 154.4102550929304, 124.1806514640998 105.73068782613109, 171.01637283316154 49.98653132682718 M42.357323199878735 196.7406914462179 C86.21039768995166 148.4248829906914, 124.54955695653655 97.69808520615251, 168.42436390532453 51.12357570631482 M43.95067082292401 201.50345184676627 C79.93022879360463 157.82121708891748, 112.87464732262536 119.9489962967015, 169.50108188753737 52.41713944690084 M44.40160251169466 200.42700049490014 C86.2318533438019 153.44632267293883, 125.28965371579986 104.0427066095609, 170.5755791905315 55.47645227664864 M43.86019935129647 202.63469329662874 C93.46776311641449 151.12797005370774, 142.04030976971302 98.07523844256063, 168.65656349440343 57.709628823078 M47.79076288124983 202.8668476752962 C97.72112843877119 149.1449080387194, 144.41402131683674 92.09312031757781, 172.31660961550898 59.79594070916506 M48.08191102364968 199.77837985987196 C81.24920031685758 163.60159657715295, 119.35017273857247 128.46499219989198, 174.71072292719725 61.07945355692118 M51.956559138316024 204.91752291890214 C75.50666423011758 172.33635490015627, 99.44609012900077 143.62674417885387, 175.51885410603825 62.379587390582856 M52.34390208443064 205.2484252182812 C83.12323792924013 171.07902727189145, 118.58742707998144 136.23155138688566, 174.04380920935628 63.52722399999287 M54.78620617968399 205.70940719265943 C94.59310326128636 159.89743087831658, 134.4828220153555 114.50502241303684, 174.1337897129005 66.97611058262076 M58.83873058606733 202.63448014319619 C84.02665467252876 175.07718819490688, 109.03299317485637 145.88085949833254, 179.56341511431805 71.46370675385559 M59.059115085125455 204.81463417806407 C92.68024914181073 169.94128518197982, 125.48201769721231 129.44444855984642, 176.005471611877 69.97290042199755 M63.318121244016254 206.20048039662498 C101.70847232845989 162.27527054289038, 136.00883663766314 121.02492539979292, 177.07947716552007 76.33482467007182 M62.979097972440684 209.20813817228037 C90.322678625348 175.63717185475053, 118.9518740207533 144.35592233724387, 178.68303310374904 73.58351892043196 M69.40431961070539 211.98138924990724 C107.99498769313112 165.44474456527797, 153.52829781054967 118.64991773410003, 179.67927563639978 78.24665685020406 M67.92322217140139 209.92689660680423 C111.25908779127771 159.51027203947962, 156.949410042789 106.40067202767261, 179.23318561429778 77.03519996464271 M68.99691498856278 207.6723262243828 C110.11834624785166 165.78998955549645, 154.8489791083362 112.21448967701448, 181.44637552140426 82.3451482260376 M70.28613313677938 211.52155878813176 C117.77333910182591 162.30043003149638, 158.39679710901083 111.72695685096329, 181.39665966531408 82.51105889657137 M74.6796633430449 210.5176958320596 C110.61842545667272 175.68951733472744, 142.05701224146978 137.4777455376241, 180.49168556498043 89.68639997935767 M75.32437736137487 211.5080746384271 C110.70453934524902 170.28893295918368, 148.80279334907578 128.48321045314856, 182.05676390358857 89.58288293315942 M82.68790050557027 213.65322051405468 C113.65225667983363 172.42444624637648, 154.52294272681326 125.74375570470792, 183.29663534854686 98.5975408012813 M79.56131557895014 214.2722276339636 C101.5378311852813 189.99644603310384, 119.61523980124582 167.49255002183853, 181.0200621878836 98.13450242568013 M87.34718799957638 218.25919812193047 C117.25597259276284 173.8018597447342, 154.38123819828596 134.5049024561639, 183.80788014554102 100.07527479337091 M82.66326859028642 212.7853922864599 C102.31376870950905 191.05202429688825, 124.40145707352116 167.592330364694, 179.5485784439804 103.32283876085216 M88.76043109850072 215.6760827572495 C110.40606758791486 187.36992209225363, 142.64039686760574 155.13496088206418, 183.78047800839093 111.14675272696627 M90.56413532116495 214.2826149826348 C114.34627418729369 186.64135130250835, 138.8684914621112 154.8093217382919, 182.14047375165072 110.50127562017155 M93.8707607677998 216.53890393201988 C122.19204028191237 176.31428519976205, 152.99007705498713 141.4541382692925, 180.52865365255303 113.51341036407544 M93.965774764386 214.95953314465265 C111.93254557185719 190.81570470776072, 129.67209015728793 169.8932904651684, 179.71831022869475 113.4259973008026 M102.77288783889212 213.87400908735844 C129.72305312352304 182.13386288416535, 156.84909993055703 151.51251408111807, 181.2371526304554 124.6477109760381 M102.08686015371181 214.63161774878654 C127.65917975354317 182.9671709035258, 153.44354832252876 151.8958005020645, 181.3779052048843 122.91523123424125 M105.83963077723413 216.7617402352733 C126.32309390076534 188.10296529803526, 152.17843858944218 156.7178670093223, 184.0241232735165 126.92756450397124 M105.22690673194259 215.9593499672008 C124.77748774984454 194.71970714828697, 141.08189916614276 171.8930039921592, 182.88871316398163 127.54616714676072 M110.68932888525391 212.67846689710416 C136.92526014999905 180.73435256229297, 165.07878558803435 152.97445670740547, 182.4115854312308 134.05371378077396 M109.17118495385016 214.35275410639144 C131.9949965244764 193.85910408477665, 149.2600389626769 171.5529990323737, 180.60179448282494 133.63484328141638 M117.93660618638893 214.1404244244136 C133.32527820775147 198.04191618417173, 146.5839814894767 175.98603100813548, 174.85343396400734 145.84467166734052 M116.37898437021573 214.17773592807725 C135.5314743681639 190.08943270372612, 157.10605074561462 165.70610986390074, 176.415318924167 143.59358353425873 M126.78402074398176 210.02690861653628 C140.3304006449969 197.60316656908796, 149.30160041813073 176.82837607916287, 175.89378942427413 152.16352643501057 M127.01276294672564 207.64177726674916 C145.27094531379444 184.83720294512833, 163.44176125216404 162.88438498543232, 174.3704163177796 153.42030283678366 M141.71529379156482 199.84656312726247 C147.03169944803307 185.34883590154365, 159.9222910486484 173.13501576264508, 175.19805708546863 163.7882321853466 M139.06887619425606 202.62272343635368 C146.65809184237807 191.24869446445825, 154.48042781439787 183.05120838697457, 175.1197355894439 159.13129757570994" stroke="#868e96" stroke-width="0.5" fill="none"></path><path d="M138.07193105077488 16.93155169562955 C148.19690510951384 22.26487264254163, 157.87166463228485 32.84690880423748, 165.00930605591424 43.92634845941815 C172.14694747954363 55.00578811459882, 178.36466968651789 70.02030869449594, 180.89777959255116 83.4081896267136 C183.43088949858443 96.79607055893125, 181.97594340954623 110.75436586903737, 180.2079654921139 124.2536340527241 C178.4399875746816 137.75290223641082, 175.99571621766628 152.72974763772694, 170.2899120879573 164.40379872883398 C164.58410795824832 176.077849819941, 155.38136773767002 185.99064206124802, 145.97314071385998 194.29794059936626 C136.56491369004993 202.6052391374845, 125.13265017237407 211.0293657403612, 113.840549945097 214.24758995754343 C102.54844971781992 217.46581417472566, 89.69646219722034 216.04368019441574, 78.22053935019751 213.60728590245972 C66.74461650317468 211.1708916105037, 55.476643438047866 206.57415404358562, 44.98501286296004 199.62922420580725 C34.493382287872215 192.68429436802887, 22.559348560318274 183.43962512582996, 15.270755899670547 171.9377068757895 C7.982163239022821 160.43578862574904, 3.782657359837131 144.27879437741336, 1.253456899073683 130.61771470556442 C-1.2757435616897652 116.95663503371549, -2.0559316999693826 103.39984954680585, 0.09555313508985819 89.97122884469591 C2.247037970149099 76.54260814258598, 7.918331879550085 62.0284684011819, 14.162365909429127 50.04599049290476 C20.40639993930817 38.06351258462762, 27.753963852846034 25.752450329280123, 37.559757314364106 18.07636139503309 C47.36555077588218 10.400272460786056, 61.43549224221028 6.6489018493031455, 72.99712667853755 3.9894568874225627 C84.55876111486482 1.3300119255419793, 91.26057029688322 -5.3807870284485775, 106.92956393232774 2.1196916237495884 C122.59855756777226 9.620170275947753, 155.00377827583813 33.07231449401858, 167.0110884912047 48.99232880061156 C179.01839870657128 64.91234310720453, 180.24802133679174 96.46102254935117, 178.97342522452723 97.63977746330747 M51.68931642764359 7.426470634613949 C61.192114974853915 -0.21793174115115033, 74.23914472119407 -2.499849078674714, 85.82499454286364 -2.5685860747953484 C97.4108443645332 -2.6373230709159827, 110.26887693830496 2.3150443827926424, 121.20441535766102 7.014048657890143 C132.13995377701707 11.713052932987644, 142.5547174543504 15.921599438357505, 151.438225059 25.625439575789656 C160.32173266364958 35.32927971322181, 169.89027633727554 52.55765608866031, 174.5054609855585 65.23708948248304 C179.12064563384146 77.91652287630578, 178.89193952092535 88.34090770747119, 179.12933294869777 101.70203993872605 C179.36672637647018 115.0631721699809, 179.2385752733729 131.84256888264326, 175.92982155219295 145.4038828700122 C172.621067831013 158.96519685738116, 167.62953167472978 172.87065271665915, 159.27681062161798 183.0699238629398 C150.9240895685062 193.26919500922043, 136.41455007208165 201.31846330954448, 125.81349523352226 206.59950974769598 C115.21244039496287 211.88055618584747, 106.89964212824667 214.9238863417113, 95.67048159026166 214.7562024918488 C84.44132105227665 214.5885186419863, 69.38277865910753 210.79876995542202, 58.43853200561223 205.5934066485209 C47.49428535211693 200.38804334161978, 38.014763199193396 192.62302254602517, 30.005001669289882 183.52402265044216 C21.995240139386368 174.42502275485916, 15.6075302829008 163.44958313500842, 10.379962826191132 150.99940727502286 C5.1523953694814635 138.5492314150373, -0.47981136945635205 122.12622429665522, -1.3604030709681325 108.8229674905287 C-2.240994772479913 95.51971068440217, 0.7411809524872011 83.39903593238682, 5.09641261712045 71.17986643826373 C9.451644281753698 58.96069694414064, 16.67125369036946 45.58758157752252, 24.77098691683136 35.507950525790164 C32.87072014329326 25.42831947405781, 49.329276013175814 14.847279979675033, 53.69481197589186 10.702080127869579 C58.060347938607904 6.556880276064123, 51.02206509654729 8.733360551793615, 50.964202693127625 10.63675141495743" stroke="#000000" stroke-width="1" fill="none"></path></g><g transform="translate(188.92408340066663 294.10388619340955) rotate(0 59.470703125 55.41015625)"><path d="M16.581374899779174 18.389008275183333 C16.581374899779174 18.389008275183333, 16.581374899779174 18.389008275183333, 16.581374899779174 18.389008275183333 M16.581374899779174 18.389008275183333 C16.581374899779174 18.389008275183333, 16.581374899779174 18.389008275183333, 16.581374899779174 18.389008275183333 M10.739898784488954 37.61685914114334 C17.68204470882774 23.265666758947432, 26.347648202635682 19.748962708653433, 27.236097635133547 6.70824725233709 M6.753407709703364 33.70618816592015 C10.795623081351817 27.398812311600835, 16.087056647168943 24.690476293785572, 30.961037169574183 9.26451423630809 M5.010064716514091 42.877192118865246 C12.02577852826312 33.315999984995486, 16.582625714272737 30.96735178966635, 43.53501021752547 5.996180465203171 M3.0291379141322174 45.55951434346735 C13.773278409639826 31.21381715092234, 27.612912161854467 19.031842222947734, 37.941121705644235 3.4038234462406685 M5.228734633273287 52.092784308365765 C18.57098091269757 38.74697638414815, 32.34673504885429 17.628594190496056, 45.41930882183736 3.113463643681392 M4.942270189842983 52.16763548413593 C20.13801371731246 35.49661911732445, 30.962480617007625 19.851896599283027, 43.53197716658836 3.727133119221911 M5.999418183395495 56.93857054464179 C13.911199321069898 41.00949309497536, 34.12945136609992 25.709614960518337, 49.64979478155577 7.660481669427078 M4.23895334562086 57.54038632526654 C19.35873873613736 39.04200975438532, 37.3861891993924 18.64868059075914, 52.256184671049354 4.7068374142508915 M8.49031252642422 60.69944319068527 C13.89926784567399 49.18783105803466, 30.728382916423598 32.242051406656, 57.023953448243205 3.0526398158777255 M3.5835393261656066 61.85029350719488 C21.576288425199095 46.246265579404415, 37.01735386773003 28.416195621844338, 57.089024980745975 4.120585257108857 M8.18659398493147 69.70176710015649 C17.733729579005555 51.8053204632116, 33.09392486426243 36.89972550725239, 63.93730836548115 0.36710626691638026 M5.873374864205481 68.30159053592497 C18.66134813303063 50.36983265166749, 34.98826530488628 33.28391868359614, 62.58233267441596 2.3355228590226034 M5.139654160479729 76.66954129649295 C22.286507527377722 54.638805194157776, 43.64133828381799 28.379939584576917, 69.94477544281312 0.1895546355349964 M4.050537596459215 71.92387946223809 C28.730116361180876 47.483788405560986, 50.59044075574036 20.92469651782762, 69.98835032175907 -0.4074637646721655 M8.904217991603026 73.58997981246382 C27.492920212785087 56.32432164631152, 48.25262599757379 32.011921766943026, 72.7932497528111 0.2721310253938469 M7.601454121617088 75.87521172124714 C32.03153888592332 50.13336082319286, 55.71188026939566 21.194378492334096, 75.85481528050354 1.1017182670285735 M8.25881249289234 76.88089791217493 C29.87742143586295 52.969898544620364, 51.24170624886647 36.50343111034217, 80.04660553107557 1.9084540308215168 M11.83986873942633 82.0469743544017 C31.56485728796963 54.461203668871235, 54.15990939456334 25.030481049431437, 77.2124596964061 2.854868700797155 M12.735298015910168 86.97332586906376 C28.176803538673326 65.00873380127909, 41.83781233801873 56.014707126465886, 83.27128646614054 4.761518934587194 M12.998874711605687 82.084003787483 C33.391054090635485 61.46647516294551, 51.30488747020999 38.885304269055595, 81.32310079315701 3.8908983467465177 M18.27569116221901 84.95063770656785 C46.73777642365004 58.529543554566956, 73.04474725797664 29.49188026721236, 87.75677443855903 4.031083929905613 M13.450237174873912 87.46121457127234 C40.5280546837145 59.02369092326838, 64.89005099263687 28.188926117816038, 84.96260961146555 6.900715300435145 M18.85716478338137 86.92355119812466 C28.044674297602782 74.98538267381664, 42.921025495717515 60.54705563323365, 89.45270757888406 7.319250959991486 M18.891893140949755 91.29609938155092 C40.77144815753748 65.04242545138413, 63.99326981526815 38.60955555888398, 86.92052906704097 8.5303057824215 M22.117047980959754 90.4051278671717 C41.07230291250837 70.65087204031789, 63.50587370842031 40.79873112381142, 92.62570318069709 11.269594458727866 M21.53545149655197 92.1612290191 C39.09790024346573 74.49736664458244, 55.39887224721868 51.105188430609175, 91.219396863621 11.457362878932386 M20.977826106516645 96.68577298714648 C52.04855202018335 62.701595647146235, 80.39865118575602 34.46903593643448, 98.07677090354161 14.659194289106708 M21.293693003399298 95.89675240970085 C38.93305163841972 74.83918125077166, 57.48420078085719 57.52499941337485, 94.89465869590538 14.920819480303507 M26.58425881959557 95.69881642104096 C38.22709228931274 78.92806355068859, 53.98105603661256 61.904435343021404, 101.51784054099917 14.811312385011064 M26.28018835619151 97.91347744368917 C51.56995137514718 71.55099295291261, 74.81532129321523 43.51815052128065, 99.93369601763189 14.571024922761666 M27.992025913778 100.92377010273816 C46.88385216862943 79.83209585624213, 66.83417324961133 62.57209293939098, 97.78917522362275 20.687425689655647 M30.06044400866633 101.53362845729174 C44.45855772007107 82.84914728295426, 63.85774158863537 64.90773709657702, 101.05573924450977 16.999277926865325 M35.729081490626456 99.2330705556756 C49.147557766109614 80.0328414546268, 65.90481369293545 63.116437404427245, 105.20407627398433 23.03577405670074 M34.775756347542526 101.27508875128981 C56.054823765944754 76.86635242650941, 81.93958369995886 50.111740662596596, 103.61907260926725 21.323874498618515 M36.10853590170342 106.77649805329077 C47.69584367917814 84.6092150917784, 60.88015463127877 68.39525194921045, 103.79811932263692 25.747521929361064 M35.01859363453883 106.17331975146465 C63.059033708188025 76.62687625233974, 89.01725599520591 46.751383453884564, 105.4327702776136 23.983769608579713 M38.853655748571406 107.35617661902117 C60.84589629991068 77.90922986478088, 84.76961005248766 51.528335653463984, 108.98597722114303 30.49588708107413 M41.02009600637401 107.59386100859749 C64.9340773726697 80.2366719852045, 89.02304042274848 54.36145043378449, 107.97601926126757 30.815205932530176 M40.72286388279291 106.80157402630431 C64.5878451307665 85.289802681597, 80.74332157654408 61.3273577062679, 107.84247907106516 30.356431035277417 M43.83757547476681 109.04483019846958 C58.59720890323073 90.39123130763133, 72.49325638891695 73.27940481526231, 112.2416784469479 32.10950427125113 M49.13473940593043 111.34450179857768 C67.64199051671915 88.98406116718762, 85.50678702518593 66.9715110963918, 111.38366925295631 31.42734948518568 M46.54201592643598 109.98942312186219 C70.47589736748773 85.26718572792257, 92.4507419148029 59.82684957807423, 112.57983762536387 35.67085397030109 M55.76119475651797 107.72998646861049 C73.30132062214469 94.53733216756996, 88.6929039542257 71.68307915409656, 119.56757131039797 42.22331061468195 M55.37375021007177 109.39428496388825 C78.90206962295915 83.16502240150805, 103.00839931020963 52.03430920015842, 117.26108137525318 37.647651240906825 M61.59188542015604 113.13836538073127 C77.93822753717755 88.4939322031937, 92.55305677646137 68.23997397356514, 120.19948309495263 44.276907197203705 M60.369369846430935 109.08910609622006 C70.67660683418336 94.33709506594347, 86.37825720080419 80.34161655722568, 116.94428420833461 40.57145125884957 M64.43191827739761 108.50377172815482 C74.99129132390283 94.99071709106546, 89.85176117987976 78.18633276874866, 118.5887996791923 44.77778533641126 M64.42193337622271 110.52260711441616 C83.44489670266844 89.11007613798395, 101.26792634672455 64.28305553188764, 117.8959334823364 47.43359690513339 M70.5904974298052 109.4173920343186 C89.28652620478711 94.90936970902956, 102.78039061330234 68.2884987329899, 119.79824947266047 55.92880614529655 M66.53211218616585 111.10329631925777 C78.19567712662537 99.13026478035412, 88.92785720586339 87.89047380990766, 117.80186551695829 52.478880445093964 M75.1619832289413 107.74775657266008 C91.44059071069633 95.71724229452676, 109.34919632591485 71.60641963166873, 116.98859907691967 61.094593647297046 M71.6517495379791 113.2572601365261 C82.30302028290055 98.73667075964414, 91.96778162270223 87.58235152952707, 117.67447044891905 60.79159142951252 M77.65089227636842 114.01573936661681 C86.38309179761488 98.90988529972887, 101.39732688636516 83.81149319954784, 120.35577134353238 67.66711561585029 M77.87136056838123 112.24066311700246 C88.87346907585432 99.8275645586621, 99.63665556604745 86.34006875172855, 120.35231028993744 64.59859753417035 M94.78172382951618 105.20362406650749 C98.78954024192838 93.85993591414883, 105.76276053054617 86.54097632536549, 116.75584537406112 69.44068357439379 M90.7924586949581 103.38631381334928 C100.52943543390025 93.73492969921529, 106.1075710281555 87.59216971885473, 117.6876189267322 71.0818445598487" stroke="#868e96" stroke-width="0.5" fill="none"></path><path d="M43.55903614207101 3.5632342883096726 C52.45251610832759 -0.14908541174409118, 65.22722091960087 -2.644596392771144, 74.30381252026017 -0.5314149805055521 C83.38040412091947 1.5817664317600397, 91.07483540235285 9.38786780972238, 98.0185857460268 16.242322761903225 C104.96233608970076 23.09677771408407, 112.66192675428883 31.829857597387644, 115.96631458230394 40.595314732579524 C119.27070241031905 49.360771867771405, 119.9465335974311 60.41646613594746, 117.84491271411743 68.83506557305451 C115.74329183080376 77.25366501016155, 110.20852014162 84.25654310647911, 103.35658928242188 91.1069113552218 C96.50465842322376 97.95727960396448, 86.2602117930704 107.02905109651795, 76.7333275589287 109.93727506551065 C67.20644332478702 112.84549903450335, 55.55075595946816 110.7899587401931, 46.1952838775717 108.55625516917803 C36.83981179567523 106.32255159816296, 27.67342584917536 102.55200181235628, 20.600495067549907 96.53505363942025 C13.527564285924456 90.51810546648423, 6.697285039474865 81.28088561662493, 3.757699187818993 72.45456613156185 C0.8181133361631203 63.628246646498766, 0.8789502538698302 52.52680640208867, 2.962979957614671 43.577136729041754 C5.047009661359512 34.62746705599484, 10.297848371872036 25.515679176709295, 16.261877410288037 18.756548093280365 C22.225906448704038 11.997417009851436, 29.175976088932266 5.7004804978892185, 38.74715418811067 3.0223502284681842 C48.318332287289074 0.3442199590471495, 64.20012958053387 1.1218084608498948, 73.68894600535845 2.687766476754156 C83.17776243018302 4.253724492658417, 96.05318351469826 12.055124664675713, 95.68005273705813 12.418098323893751 M90.47908605332903 6.5320598908651775 C98.82110165945262 9.896074357633408, 106.70608458956468 20.18067014670463, 111.61406535086988 28.427879555415252 C116.52204611217508 36.67508896412588, 120.18273121712917 46.997532253176004, 119.92697062116024 56.0153163431289 C119.6712100251913 65.0331004330818, 114.5925797189535 75.13603138279707, 110.0795017750563 82.53458409513266 C105.5664238311591 89.93313680746824, 101.28688439589648 95.86046056805276, 92.84850295777704 100.40663261714245 C84.41012151965761 104.95280466623214, 69.60681050079124 108.91723017877666, 59.44921314633972 109.81161638967083 C49.29161579188821 110.706002600565, 40.5046950055639 109.84652818304664, 31.90291883106796 105.77294988250748 C23.301142656572022 101.69937158196831, 13.444510537790634 93.51004557644579, 7.838556099364091 85.37014658643582 C2.232601660937547 77.23024759642585, -1.9056274281649763 66.60478152271, -1.7328077994913045 56.93355594244768 C-1.5599881708176326 47.26233036218537, 4.378810482463829 35.20051990940942, 8.875473871406122 27.342793104861915 C13.372137260348413 19.485066300314404, 17.363580109418876 14.596225599002675, 25.247172534162452 9.787195115162625 C33.13076495890603 4.978164631322575, 46.22608482358593 -1.0296518361561908, 56.177028419867575 -1.511389798178385 C66.12797201614922 -1.9931277602005792, 79.64687355934835 5.305033278229748, 84.95283411185233 6.89676734302946 C90.2587946643563 8.48850140782917, 87.5898350838381 7.962105908259752, 88.01279173489144 8.039014590619885 C88.43574838594478 8.115923272980018, 87.33307396633734 6.597710146934259, 87.49057401817235 7.358219437190257" stroke="#000000" stroke-width="1" fill="none"></path></g><g><g transform="translate(217.65845840066663 397.28357369340955) rotate(0 11.196959504522397 19.271728048516536)"><path d="M2.1607615526765587 2.1209092501550915 C1.437233775481582 4.1622273130963245, -6.437525958195329 9.341242786621052, -4.750523263588548 14.595449567213654 C-3.063520568981766 19.849656347806256, 6.56024048489829 29.55047777531048, 12.282777720317245 33.646149933710696 C18.0053149557362 37.741822092110915, 26.763212845350306 38.418221446250875, 29.584700148925187 39.16948251761496 M3.7642908959090704 -1.7541635732352736 C3.0400537542998785 0.6320915177961188, -7.626400107890367 9.330496190736692, -7.190781139880419 16.107503082305193 C-6.75516217187047 22.884509973873694, 0.45131055081883975 35.36696315959096, 6.378004703968763 38.90787777617574 C12.304698857118687 42.44879239276052, 24.462530781875053 38.22100209906697, 28.369383779019117 37.35299078181386" stroke="#000000" stroke-width="1" fill="none"></path></g></g><g><g transform="translate(265.88475112863193 398.59716658444034) rotate(359.17790440096525 9.086643265848863 18.66374437976765)"><path d="M22.071694791390936 -0.8783297892659903 C22.859467429534245 1.6321913790450253, 27.21471985493846 11.39849753678049, 25.249528232536402 17.544739859474156 C23.284336610134346 23.690982182167822, 15.293136148389028 32.64604486317716, 10.280545056978594 35.999124146896015 C5.267953965568162 39.35220343061487, -2.785556269810476 37.975866129960856, -4.826018315926194 37.6632155617873 M24.892011544405857 1.3516549940407279 C24.593385578632997 4.901833191662606, 23.632399655553172 12.740153009670035, 21.965003231114828 17.75839623883114 C20.297606806676484 22.776639467992243, 19.811134666165554 28.445829787341577, 14.887632997775803 31.461114369007362 C9.964131329386053 34.47639895067315, -4.087481929362692 35.25568721825008, -7.576006779223681 35.85010372882586" stroke="#000000" stroke-width="1" fill="none"></path></g></g><g><g transform="translate(174.54127090066663 279.55701119340955) rotate(0 -46.23200802887379 -91.44076738990842)"><path d="M1.940673232451081 1.4376036461442707 C-13.723158418759704 -10.743834032987554, -87.53131780587137 -44.54089575844506, -94.13049071989954 -75.50035277046263 C-100.72966363392771 -106.45980978248019, -46.985145485028625 -166.07346302506824, -37.65436425171792 -184.31913842596114 M-3.0480184583365917 -0.33900236561894426 C-18.231455139766137 -13.53485373452306, -87.7168926299115 -44.52989366645615, -93.31928454205394 -74.88694198563695 C-98.92167645419637 -105.24399030481776, -46.06316308781505 -164.8745004617671, -36.66236993119121 -182.48129228070377" stroke="#000000" stroke-width="1" fill="none"></path></g></g></svg>